<svg xmlns="http://www.w3.org/2000/svg" xmlns:xlink="http://www.w3.org/1999/xlink" width="500" zoomAndPan="magnify" viewBox="0 0 375 374.999991" height="500" preserveAspectRatio="xMidYMid meet" version="1.0"><defs><clipPath id="ef7aaf7edc"><path d="M 40.261719 244.027344 L 133.734375 244.027344 L 133.734375 337.5 L 40.261719 337.5 Z M 40.261719 244.027344 " clip-rule="nonzero"/></clipPath><clipPath id="08412c7e85"><path d="M 86.996094 244.027344 C 61.183594 244.027344 40.261719 264.953125 40.261719 290.761719 C 40.261719 316.574219 61.183594 337.5 86.996094 337.5 C 112.808594 337.5 133.734375 316.574219 133.734375 290.761719 C 133.734375 264.953125 112.808594 244.027344 86.996094 244.027344 Z M 86.996094 244.027344 " clip-rule="nonzero"/></clipPath><clipPath id="3ba0016452"><path d="M 86.996094 141.070312 L 180.46875 141.070312 L 180.46875 234.542969 L 86.996094 234.542969 Z M 86.996094 141.070312 " clip-rule="nonzero"/></clipPath><clipPath id="a1396785b3"><path d="M 133.734375 141.070312 C 107.921875 141.070312 86.996094 161.996094 86.996094 187.808594 C 86.996094 213.621094 107.921875 234.542969 133.734375 234.542969 C 159.546875 234.542969 180.46875 213.621094 180.46875 187.808594 C 180.46875 161.996094 159.546875 141.070312 133.734375 141.070312 Z M 133.734375 141.070312 " clip-rule="nonzero"/></clipPath><clipPath id="817b712678"><path d="M 133.734375 37.5 L 227.207031 37.5 L 227.207031 130.972656 L 133.734375 130.972656 Z M 133.734375 37.5 " clip-rule="nonzero"/></clipPath><clipPath id="393a971a8b"><path d="M 180.46875 37.5 C 154.65625 37.5 133.734375 58.425781 133.734375 84.234375 C 133.734375 110.046875 154.65625 130.972656 180.46875 130.972656 C 206.28125 130.972656 227.207031 110.046875 227.207031 84.234375 C 227.207031 58.425781 206.28125 37.5 180.46875 37.5 Z M 180.46875 37.5 " clip-rule="nonzero"/></clipPath></defs><g clip-path="url(#ef7aaf7edc)"><g clip-path="url(#08412c7e85)"><path fill="#000000" d="M 40.261719 244.027344 L 133.734375 244.027344 L 133.734375 337.5 L 40.261719 337.5 Z M 40.261719 244.027344 " fill-opacity="1" fill-rule="nonzero"/></g></g><g clip-path="url(#3ba0016452)"><g clip-path="url(#a1396785b3)"><path fill="#0cc0df" d="M 86.996094 141.070312 L 180.46875 141.070312 L 180.46875 234.542969 L 86.996094 234.542969 Z M 86.996094 141.070312 " fill-opacity="1" fill-rule="nonzero"/></g></g><g clip-path="url(#817b712678)"><g clip-path="url(#393a971a8b)"><path fill="#000000" d="M 133.734375 37.5 L 227.207031 37.5 L 227.207031 130.972656 L 133.734375 130.972656 Z M 133.734375 37.5 " fill-opacity="1" fill-rule="nonzero"/></g></g><path stroke-linecap="round" transform="matrix(0.303578, 0.685814, -0.685814, 0.303578, 237.833938, 136.369592)" fill="none" stroke-linejoin="miter" d="M 15.50275 15.499946 L 270.919197 15.499554 " stroke="#000000" stroke-width="31" stroke-opacity="1" stroke-miterlimit="4"/></svg>