<svg xmlns="http://www.w3.org/2000/svg" xmlns:xlink="http://www.w3.org/1999/xlink" width="500" zoomAndPan="magnify" viewBox="0 0 375 374.999991" height="500" preserveAspectRatio="xMidYMid meet" version="1.0"><defs><clipPath id="8f0bff42f1"><path d="M 152.082031 47.886719 L 222.917969 47.886719 L 222.917969 118.722656 L 152.082031 118.722656 Z M 152.082031 47.886719 " clip-rule="nonzero"/></clipPath><clipPath id="275096d39f"><path d="M 187.5 47.886719 C 167.941406 47.886719 152.082031 63.742188 152.082031 83.304688 C 152.082031 102.863281 167.941406 118.722656 187.5 118.722656 C 207.058594 118.722656 222.917969 102.863281 222.917969 83.304688 C 222.917969 63.742188 207.058594 47.886719 187.5 47.886719 Z M 187.5 47.886719 " clip-rule="nonzero"/></clipPath><clipPath id="4982a8ff1a"><path d="M 101.191406 157.277344 L 172.023438 157.277344 L 172.023438 228.109375 L 101.191406 228.109375 Z M 101.191406 157.277344 " clip-rule="nonzero"/></clipPath><clipPath id="5994e3bb0a"><path d="M 136.605469 157.277344 C 117.046875 157.277344 101.191406 173.132812 101.191406 192.695312 C 101.191406 212.253906 117.046875 228.109375 136.605469 228.109375 C 156.167969 228.109375 172.023438 212.253906 172.023438 192.695312 C 172.023438 173.132812 156.167969 157.277344 136.605469 157.277344 Z M 136.605469 157.277344 " clip-rule="nonzero"/></clipPath><clipPath id="c420f5b41f"><path d="M 45.832031 266.664062 L 116.664062 266.664062 L 116.664062 337.5 L 45.832031 337.5 Z M 45.832031 266.664062 " clip-rule="nonzero"/></clipPath><clipPath id="8d82965195"><path d="M 81.25 266.664062 C 61.6875 266.664062 45.832031 282.523438 45.832031 302.082031 C 45.832031 321.644531 61.6875 337.5 81.25 337.5 C 100.808594 337.5 116.664062 321.644531 116.664062 302.082031 C 116.664062 282.523438 100.808594 266.664062 81.25 266.664062 Z M 81.25 266.664062 " clip-rule="nonzero"/></clipPath></defs><g clip-path="url(#8f0bff42f1)"><g clip-path="url(#275096d39f)"><path fill="#000000" d="M 152.082031 47.886719 L 222.917969 47.886719 L 222.917969 118.722656 L 152.082031 118.722656 Z M 152.082031 47.886719 " fill-opacity="1" fill-rule="nonzero"/></g></g><path stroke-linecap="round" transform="matrix(0.303578, 0.685814, -0.685814, 0.303578, 237.833938, 136.369592)" fill="none" stroke-linejoin="miter" d="M 15.50275 15.499946 L 270.919197 15.499554 " stroke="#000000" stroke-width="31" stroke-opacity="1" stroke-miterlimit="4"/><g clip-path="url(#4982a8ff1a)"><g clip-path="url(#5994e3bb0a)"><path fill="#155e75" d="M 101.191406 157.277344 L 172.023438 157.277344 L 172.023438 228.109375 L 101.191406 228.109375 Z M 101.191406 157.277344 " fill-opacity="1" fill-rule="nonzero"/></g></g><g clip-path="url(#c420f5b41f)"><g clip-path="url(#8d82965195)"><path fill="#000000" d="M 45.832031 266.664062 L 116.664062 266.664062 L 116.664062 337.5 L 45.832031 337.5 Z M 45.832031 266.664062 " fill-opacity="1" fill-rule="nonzero"/></g></g></svg>