<svg xmlns="http://www.w3.org/2000/svg" xmlns:xlink="http://www.w3.org/1999/xlink" width="1500" zoomAndPan="magnify" viewBox="0 0 1125 299.999988" height="400" preserveAspectRatio="xMidYMid meet" version="1.0"><defs><g/><clipPath id="f93432ecae"><path d="M 996.542969 185.464844 L 1055.191406 185.464844 L 1055.191406 244.113281 L 996.542969 244.113281 Z M 996.542969 185.464844 " clip-rule="nonzero"/></clipPath><clipPath id="c82e26dee8"><path d="M 1025.867188 185.464844 C 1009.671875 185.464844 996.542969 198.59375 996.542969 214.789062 C 996.542969 230.984375 1009.671875 244.113281 1025.867188 244.113281 C 1042.0625 244.113281 1055.191406 230.984375 1055.191406 214.789062 C 1055.191406 198.59375 1042.0625 185.464844 1025.867188 185.464844 Z M 1025.867188 185.464844 " clip-rule="nonzero"/></clipPath><clipPath id="76c90ea3b2"><path d="M 1025.867188 120.871094 L 1084.511719 120.871094 L 1084.511719 179.515625 L 1025.867188 179.515625 Z M 1025.867188 120.871094 " clip-rule="nonzero"/></clipPath><clipPath id="12266eb241"><path d="M 1055.191406 120.871094 C 1038.996094 120.871094 1025.867188 134 1025.867188 150.191406 C 1025.867188 166.386719 1038.996094 179.515625 1055.191406 179.515625 C 1071.386719 179.515625 1084.511719 166.386719 1084.511719 150.191406 C 1084.511719 134 1071.386719 120.871094 1055.191406 120.871094 Z M 1055.191406 120.871094 " clip-rule="nonzero"/></clipPath><clipPath id="f4a94471a9"><path d="M 1055.191406 55.886719 L 1113.835938 55.886719 L 1113.835938 114.535156 L 1055.191406 114.535156 Z M 1055.191406 55.886719 " clip-rule="nonzero"/></clipPath><clipPath id="6c69a642bb"><path d="M 1084.511719 55.886719 C 1068.320312 55.886719 1055.191406 69.015625 1055.191406 85.210938 C 1055.191406 101.40625 1068.320312 114.535156 1084.511719 114.535156 C 1100.707031 114.535156 1113.835938 101.40625 1113.835938 85.210938 C 1113.835938 69.015625 1100.707031 55.886719 1084.511719 55.886719 Z M 1084.511719 55.886719 " clip-rule="nonzero"/></clipPath></defs><g fill="#000000" fill-opacity="1"><g transform="translate(0.0000225, 226.153292)"><g><path d="M 113.953125 -20.03125 C 103.929688 -5.34375 88.988281 2 69.125 2 C 51.09375 2 36.398438 -4.257812 25.046875 -16.78125 C 14.023438 -29.132812 8.515625 -44.410156 8.515625 -62.609375 C 8.515625 -80.804688 14.023438 -96.082031 25.046875 -108.4375 C 36.398438 -120.957031 51.507812 -127.21875 70.375 -127.21875 C 89.238281 -127.21875 103.765625 -119.789062 113.953125 -104.9375 L 113.953125 -125.21875 L 132.734375 -125.21875 L 132.734375 0 L 113.953125 0 Z M 71.625 -15.03125 C 85.144531 -15.03125 95.832031 -19.703125 103.6875 -29.046875 C 111.195312 -37.898438 114.953125 -49.085938 114.953125 -62.609375 C 114.953125 -76.128906 111.195312 -87.316406 103.6875 -96.171875 C 95.832031 -105.515625 85.144531 -110.1875 71.625 -110.1875 C 58.269531 -110.1875 47.414062 -105.515625 39.0625 -96.171875 C 31.21875 -87.316406 27.296875 -76.128906 27.296875 -62.609375 C 27.296875 -49.085938 31.21875 -37.898438 39.0625 -29.046875 C 47.414062 -19.703125 58.269531 -15.03125 71.625 -15.03125 Z M 71.625 -15.03125 "/></g></g></g><g fill="#000000" fill-opacity="1"><g transform="translate(149.011419, 226.153292)"><g><path d="M 74.125 -15.03125 C 82.144531 -15.03125 89.242188 -17.28125 95.421875 -21.78125 C 101.597656 -26.289062 106.101562 -32.132812 108.9375 -39.3125 L 129.21875 -39.3125 C 125.382812 -26.957031 118.375 -17.023438 108.1875 -9.515625 C 97.5 -1.835938 84.8125 2 70.125 2 C 51.757812 2 36.816406 -4.257812 25.296875 -16.78125 C 14.109375 -28.96875 8.515625 -44.242188 8.515625 -62.609375 C 8.515625 -80.972656 14.109375 -96.25 25.296875 -108.4375 C 36.816406 -120.957031 51.757812 -127.21875 70.125 -127.21875 C 84.8125 -127.21875 97.5 -123.378906 108.1875 -115.703125 C 118.375 -108.191406 125.382812 -98.257812 129.21875 -85.90625 L 108.9375 -85.90625 C 106.101562 -93.082031 101.597656 -98.921875 95.421875 -103.421875 C 89.242188 -107.929688 82.144531 -110.1875 74.125 -110.1875 C 66.113281 -110.1875 59.3125 -108.929688 53.71875 -106.421875 C 48.125 -103.921875 43.40625 -100.503906 39.5625 -96.171875 C 31.382812 -87.148438 27.296875 -75.960938 27.296875 -62.609375 C 27.296875 -49.253906 31.382812 -38.066406 39.5625 -29.046875 C 47.914062 -19.703125 59.4375 -15.03125 74.125 -15.03125 Z M 74.125 -15.03125 "/></g></g></g><g fill="#000000" fill-opacity="1"><g transform="translate(285.250426, 226.153292)"><g><path d="M 82.390625 -127.21875 L 82.390625 -108.4375 L 80.140625 -108.4375 C 66.617188 -108.4375 55.597656 -103.007812 47.078125 -92.15625 C 39.066406 -81.8125 35.0625 -69.457031 35.0625 -55.09375 L 35.0625 0 L 16.28125 0 L 16.28125 -125.21875 L 35.0625 -125.21875 L 35.0625 -94.421875 C 39.070312 -107.441406 47.753906 -117.039062 61.109375 -123.21875 C 66.617188 -125.882812 73.296875 -127.21875 81.140625 -127.21875 Z M 82.390625 -127.21875 "/></g></g></g><g fill="#000000" fill-opacity="1"><g transform="translate(371.651949, 226.153292)"><g><path d="M 72.125 -15.03125 C 88.988281 -15.03125 101.09375 -22.039062 108.4375 -36.0625 L 128.96875 -36.0625 C 124.632812 -24.707031 117.75 -15.523438 108.3125 -8.515625 C 98.882812 -1.503906 86.738281 2 71.875 2 C 53.007812 2 37.648438 -4.257812 25.796875 -16.78125 C 14.273438 -28.96875 8.515625 -44.242188 8.515625 -62.609375 C 8.515625 -81.140625 14.023438 -96.414062 25.046875 -108.4375 C 36.734375 -120.957031 51.925781 -127.21875 70.625 -127.21875 C 89.320312 -127.21875 104.515625 -120.957031 116.203125 -108.4375 C 127.222656 -96.414062 132.734375 -81.140625 132.734375 -62.609375 L 132.734375 -55.09375 L 27.796875 -55.09375 C 29.128906 -43.570312 33.722656 -34.054688 41.578125 -26.546875 C 49.585938 -18.867188 59.769531 -15.03125 72.125 -15.03125 Z M 70.625 -110.1875 C 59.101562 -110.1875 49.421875 -106.597656 41.578125 -99.421875 C 34.222656 -92.578125 29.710938 -83.644531 28.046875 -72.625 L 113.203125 -72.625 C 111.523438 -83.644531 107.015625 -92.578125 99.671875 -99.421875 C 91.828125 -106.597656 82.144531 -110.1875 70.625 -110.1875 Z M 70.625 -110.1875 "/></g></g></g><g fill="#000000" fill-opacity="1"><g transform="translate(511.1466, 226.153292)"><g><path d="M 72.125 -15.03125 C 88.988281 -15.03125 101.09375 -22.039062 108.4375 -36.0625 L 128.96875 -36.0625 C 124.632812 -24.707031 117.75 -15.523438 108.3125 -8.515625 C 98.882812 -1.503906 86.738281 2 71.875 2 C 53.007812 2 37.648438 -4.257812 25.796875 -16.78125 C 14.273438 -28.96875 8.515625 -44.242188 8.515625 -62.609375 C 8.515625 -81.140625 14.023438 -96.414062 25.046875 -108.4375 C 36.734375 -120.957031 51.925781 -127.21875 70.625 -127.21875 C 89.320312 -127.21875 104.515625 -120.957031 116.203125 -108.4375 C 127.222656 -96.414062 132.734375 -81.140625 132.734375 -62.609375 L 132.734375 -55.09375 L 27.796875 -55.09375 C 29.128906 -43.570312 33.722656 -34.054688 41.578125 -26.546875 C 49.585938 -18.867188 59.769531 -15.03125 72.125 -15.03125 Z M 70.625 -110.1875 C 59.101562 -110.1875 49.421875 -106.597656 41.578125 -99.421875 C 34.222656 -92.578125 29.710938 -83.644531 28.046875 -72.625 L 113.203125 -72.625 C 111.523438 -83.644531 107.015625 -92.578125 99.671875 -99.421875 C 91.828125 -106.597656 82.144531 -110.1875 70.625 -110.1875 Z M 70.625 -110.1875 "/></g></g></g><g fill="#000000" fill-opacity="1"><g transform="translate(650.641252, 226.153292)"><g><path d="M 113.953125 -20.03125 C 103.929688 -5.34375 88.988281 2 69.125 2 C 51.09375 2 36.398438 -4.257812 25.046875 -16.78125 C 14.023438 -29.132812 8.515625 -44.410156 8.515625 -62.609375 C 8.515625 -80.804688 14.023438 -96.082031 25.046875 -108.4375 C 36.398438 -120.957031 51.507812 -127.21875 70.375 -127.21875 C 89.238281 -127.21875 103.765625 -119.789062 113.953125 -104.9375 L 113.953125 -125.21875 L 132.734375 -125.21875 L 132.734375 0 L 113.953125 0 Z M 71.625 -15.03125 C 85.144531 -15.03125 95.832031 -19.703125 103.6875 -29.046875 C 111.195312 -37.898438 114.953125 -49.085938 114.953125 -62.609375 C 114.953125 -76.128906 111.195312 -87.316406 103.6875 -96.171875 C 95.832031 -105.515625 85.144531 -110.1875 71.625 -110.1875 C 58.269531 -110.1875 47.414062 -105.515625 39.0625 -96.171875 C 31.21875 -87.316406 27.296875 -76.128906 27.296875 -62.609375 C 27.296875 -49.085938 31.21875 -37.898438 39.0625 -29.046875 C 47.414062 -19.703125 58.269531 -15.03125 71.625 -15.03125 Z M 71.625 -15.03125 "/></g></g></g><g fill="#000000" fill-opacity="1"><g transform="translate(799.652692, 226.153292)"><g><path d="M 113.953125 -20.03125 C 103.929688 -5.34375 88.988281 2 69.125 2 C 51.09375 2 36.398438 -4.257812 25.046875 -16.78125 C 14.023438 -29.132812 8.515625 -44.410156 8.515625 -62.609375 C 8.515625 -80.804688 14.023438 -96.082031 25.046875 -108.4375 C 36.398438 -120.957031 51.507812 -127.21875 70.375 -127.21875 C 89.238281 -127.21875 103.765625 -119.789062 113.953125 -104.9375 L 113.953125 -175.3125 L 132.734375 -175.3125 L 132.734375 0 L 113.953125 0 Z M 71.625 -15.03125 C 85.144531 -15.03125 95.832031 -19.703125 103.6875 -29.046875 C 111.195312 -37.898438 114.953125 -49.085938 114.953125 -62.609375 C 114.953125 -76.128906 111.195312 -87.316406 103.6875 -96.171875 C 95.832031 -105.515625 85.144531 -110.1875 71.625 -110.1875 C 58.269531 -110.1875 47.414062 -105.515625 39.0625 -96.171875 C 31.21875 -87.316406 27.296875 -76.128906 27.296875 -62.609375 C 27.296875 -49.085938 31.21875 -37.898438 39.0625 -29.046875 C 47.414062 -19.703125 58.269531 -15.03125 71.625 -15.03125 Z M 71.625 -15.03125 "/></g></g></g><g clip-path="url(#f93432ecae)"><g clip-path="url(#c82e26dee8)"><path fill="#000000" d="M 996.542969 185.464844 L 1055.191406 185.464844 L 1055.191406 244.113281 L 996.542969 244.113281 Z M 996.542969 185.464844 " fill-opacity="1" fill-rule="nonzero"/></g></g><g clip-path="url(#76c90ea3b2)"><g clip-path="url(#12266eb241)"><path fill="#155e75" d="M 1025.867188 120.871094 L 1084.511719 120.871094 L 1084.511719 179.515625 L 1025.867188 179.515625 Z M 1025.867188 120.871094 " fill-opacity="1" fill-rule="nonzero"/></g></g><g clip-path="url(#f4a94471a9)"><g clip-path="url(#6c69a642bb)"><path fill="#000000" d="M 1055.191406 55.886719 L 1113.835938 55.886719 L 1113.835938 114.535156 L 1055.191406 114.535156 Z M 1055.191406 55.886719 " fill-opacity="1" fill-rule="nonzero"/></g></g></svg>